<svg width="23" height="22" viewBox="0 0 23 22" fill="none" xmlns="http://www.w3.org/2000/svg">
<path d="M4.7915 16.4776V19.9251L10.8069 16.4776H15.3331C16.3902 16.4776 17.2498 15.6565 17.2498 14.6467V7.32332C17.2498 6.31361 16.3902 5.49247 15.3331 5.49247H3.83317C2.77613 5.49247 1.9165 6.31361 1.9165 7.32332V14.6467C1.9165 15.6565 2.77613 16.4776 3.83317 16.4776H4.7915ZM3.83317 7.32332H15.3331V14.6467H10.276L6.70816 16.6918V14.6467H3.83317V7.32332Z" fill="#5B39F3"/>
<path d="M19.1665 1.83076H7.66649C6.60945 1.83076 5.74983 2.65189 5.74983 3.66161H17.2498C18.3069 3.66161 19.1665 4.48275 19.1665 5.49247V12.8159C20.2235 12.8159 21.0831 11.9948 21.0831 10.985V3.66161C21.0831 2.65189 20.2235 1.83076 19.1665 1.83076Z" fill="#5B39F3"/>
</svg>
